<svg width="90" height="88" viewBox="0 0 90 88" fill="none" xmlns="http://www.w3.org/2000/svg">
<path fill-rule="evenodd" clip-rule="evenodd" d="M86.2105 49.6453C79.5456 42.1001 71.0782 36.4412 61.6886 33.0878V23.1953C61.6886 22.2312 60.9341 21.4766 59.97 21.4766H56.5747C55.6106 21.4766 54.856 22.2312 54.856 23.1953V31.0758C52.7182 30.5728 50.4966 30.2374 48.275 29.9859V23.1953C48.275 22.2312 47.5204 21.4766 46.5563 21.4766H43.2867C42.3226 21.4766 41.5681 22.2312 41.5681 23.1953V29.9859C39.3465 30.2374 37.1249 30.5728 34.9871 31.0758V23.1953C34.9871 22.2312 34.2325 21.4766 33.2684 21.4766H29.8731C28.909 21.4766 28.1545 22.2312 28.1545 23.1953V33.0878C18.7649 36.4412 10.2975 42.1001 3.63262 49.6453C-1.64901 31.7045 -1.35558 13.8057 5.7285 5.12874C12.3515 -2.96137 26.2682 -2.29069 44.8796 13.0093H44.9635C63.5749 -2.29069 77.4916 -2.96137 84.1146 5.12874C91.1987 13.8057 91.4921 31.7045 86.2105 49.6453Z" fill="#00DAD0"/>
<path fill-rule="evenodd" clip-rule="evenodd" d="M84.8271 54.2563C80.3839 66.9992 73.1321 79.323 63.5749 88C63.5749 87.497 63.6168 87.0359 63.6168 86.5329C63.6168 70.8976 55.2332 58.2384 44.9215 58.2384C34.6097 58.2384 26.2262 70.8976 26.2262 86.5329C26.2262 87.0359 26.2681 87.497 26.2681 88C16.7109 79.323 9.45914 66.9992 5.01587 54.2563C11.2197 46.7111 19.1421 40.9684 28.0706 37.5311V40.2138C28.0706 41.1779 28.8251 41.9325 29.7892 41.9325H33.1846C34.1487 41.9325 34.9032 41.1779 34.9032 40.2138V35.3933C37.041 34.8065 39.2626 34.4292 41.4842 34.1777V40.2138C41.4842 41.1779 42.2388 41.9325 43.2029 41.9325H46.6401C47.6042 41.9325 48.3587 41.1779 48.3587 40.2138V34.1777C50.5804 34.4292 52.802 34.8065 54.9398 35.3933V40.2138C54.9398 41.1779 55.6943 41.9325 56.6585 41.9325H60.0538C61.0179 41.9325 61.7724 41.1779 61.7724 40.2138V37.5311C70.7009 40.9684 78.6233 46.7111 84.8271 54.2563Z" fill="#00DAD0"/>
</svg>
