<svg width="96" height="88" viewBox="0 0 96 88" fill="none" xmlns="http://www.w3.org/2000/svg">
<path fill-rule="evenodd" clip-rule="evenodd" d="M11.9944 0C9.57494 0 7.37545 1.45967 6.45565 3.69916L0.736954 20.5553C-0.702719 24.7344 -0.00288595 29.1734 3.05642 32.4526C4.39611 33.8723 6.11573 34.9321 8.0153 35.5119V80.0018C8.0153 84.4008 11.6145 88 16.0135 88H80.0189C84.4179 88 88.0171 84.4008 88.0171 80.0018V35.4319C90.0566 34.8121 91.8962 33.6523 93.3159 31.9527C95.9953 28.7735 96.7551 24.3345 95.1355 20.4554L89.5568 3.77914C88.637 1.53965 86.3975 0.0199959 83.978 0.0199959H11.9544L11.9944 0ZM67.4786 51.3747C64.2994 47.7755 60.2603 45.0761 55.7813 43.4765V38.7576C55.7813 38.2977 55.4214 37.9378 54.9615 37.9378H53.3419C52.882 37.9378 52.5221 38.2977 52.5221 38.7576V42.5167C51.5023 42.2768 50.4425 42.1168 49.3828 41.9968V38.7576C49.3828 38.2977 49.0228 37.9378 48.5629 37.9378H46.9433C46.4834 37.9378 46.1235 38.2977 46.1235 38.7576V41.7969C46.0159 41.7969 45.8988 41.8017 45.7791 41.8066L45.7787 41.8066C45.6538 41.8117 45.5261 41.8169 45.4037 41.8169C44.7838 41.8369 44.1839 41.8769 43.6041 41.9368V38.7576C43.6041 38.2977 43.2442 37.9378 42.8043 37.9378H41.1646C40.7247 37.9378 40.3448 38.2977 40.3448 38.7576V42.4367C34.8261 43.6365 30.5671 46.3958 27.4678 49.1752C23.8686 33.4788 27.9476 18.1223 47.8031 33.8987C56.6811 26.6003 63.3196 26.2804 66.4789 30.1395C69.8581 34.2786 69.9981 42.8167 67.4786 51.3747ZM55.8014 70.4304C60.7802 66.2913 64.5394 60.0327 66.7789 53.5742C63.8195 49.975 60.0404 47.2356 55.7814 45.596V46.8757C55.7814 47.3356 55.4215 47.6955 54.9616 47.6955H53.3419C52.882 47.6955 52.5221 47.3356 52.5221 46.8757V44.5762C51.5023 44.2963 50.4426 44.1164 49.3828 43.9964V46.8757C49.3828 47.3356 49.0229 47.6955 48.563 47.6955H46.9434C46.4835 47.6955 46.1235 47.3356 46.1235 46.8757V43.7964C46.026 43.7964 45.9188 43.8012 45.8092 43.8061C45.6941 43.8112 45.5763 43.8164 45.4637 43.8164C44.8239 43.8364 44.204 43.8764 43.6041 43.9364V46.8757C43.6041 47.3356 43.2442 47.6955 42.8043 47.6955H41.1647C40.7248 47.6955 40.3449 47.3356 40.3449 46.8757V44.4963C35.0061 45.776 30.907 48.6753 28.0477 51.4347C30.1472 59.1329 34.0263 66.5312 38.6853 70.0305C39.1052 60.2927 43.2042 55.8137 47.3833 56.1136C52.3621 56.4735 57.401 63.232 55.8014 70.4304Z" fill="#00DAD0"/>
</svg>
