<svg width="90" height="88" viewBox="0 0 90 88" fill="none" xmlns="http://www.w3.org/2000/svg">
<path fill-rule="evenodd" clip-rule="evenodd" d="M86.1694 49.6217C79.5077 42.0801 71.0443 36.4239 61.6593 33.0721V23.1842C61.6593 22.2206 60.9051 21.4664 59.9414 21.4664H56.5477C55.5841 21.4664 54.8299 22.2206 54.8299 23.1842V31.061C52.6931 30.5582 50.4726 30.223 48.252 29.9717V23.1842C48.252 22.2206 47.4978 21.4664 46.5342 21.4664H43.2662C42.3025 21.4664 41.5483 22.2206 41.5483 23.1842V29.9717C39.3278 30.223 37.1072 30.5582 34.9704 31.061V23.1842C34.9704 22.2206 34.2162 21.4664 33.2526 21.4664H29.8589C28.8952 21.4664 28.1411 22.2206 28.1411 23.1842V33.0721C18.756 36.4239 10.2926 42.0801 3.63089 49.6217C-1.64822 31.6895 -1.35494 13.7991 5.72578 5.1263C12.3456 -2.95996 26.2557 -2.2896 44.8583 13.0031H44.9421C63.5446 -2.2896 77.4547 -2.95996 84.0745 5.1263C91.1552 13.7991 91.4485 31.6895 86.1694 49.6217Z" fill="#B3B3B3"/>
<path d="M48.3359 34.1614V36.382C49.5509 35.7535 50.8078 35.2089 52.1486 34.748C50.8916 34.4966 49.6347 34.2871 48.3359 34.1614Z" fill="#00DAD0"/>
<path fill-rule="evenodd" clip-rule="evenodd" d="M41.7412 41.1328C41.5821 40.8845 41.4646 40.5605 41.4646 40.2366V34.2033C39.2441 34.4547 37.0235 34.8318 34.8867 35.4184V40.2366C34.8867 41.2002 34.1325 41.9544 33.1689 41.9544H29.7752C28.8115 41.9544 28.0574 41.2002 28.0574 40.2366V37.5551C19.1331 40.9908 11.2145 46.7307 5.01361 54.2723C9.45477 67.0092 16.7031 79.3272 26.2558 88C26.2558 87.7486 26.2453 87.5077 26.2348 87.2668C26.2243 87.0259 26.2139 86.785 26.2139 86.5336C26.2139 77.3999 29.1048 69.3136 33.5041 64.1602C33.3784 63.1546 33.3365 62.1491 33.3365 61.1017C33.3365 61.0834 33.3365 61.0652 33.3365 61.0469C33.3365 61.0512 33.3365 61.0555 33.3365 61.0598C33.3365 62.1072 33.4203 63.1127 33.5041 64.1183C36.6464 60.4313 40.5848 58.2107 44.9003 58.2107C55.2071 58.2107 63.5867 70.8638 63.5867 86.4917C63.5867 86.7431 63.5762 86.984 63.5657 87.2249C63.5552 87.4658 63.5448 87.7067 63.5448 87.9581C73.0975 79.2853 80.3458 66.9673 84.7869 54.2304C78.5861 46.6888 70.6674 40.9488 61.7432 37.5132V40.1947C61.7432 41.1583 60.989 41.9125 60.0254 41.9125H56.6317C55.668 41.9125 54.9139 41.1583 54.9139 40.1947V35.3764C53.9921 35.1251 53.0704 34.9156 52.1486 34.748C50.8498 35.2089 49.5509 35.7535 48.3359 36.382V40.1947C48.3359 41.1583 47.5818 41.9125 46.6181 41.9125H43.1825C42.554 41.9125 42.0932 41.5773 41.758 41.1164C41.7524 41.1219 41.7468 41.1273 41.7412 41.1328Z" fill="#00DAD0"/>
</svg>
